<svg width="345" height="18" viewBox="0 0 345 18" fill="none" xmlns="http://www.w3.org/2000/svg">
<path d="M6.16 1.608C7.536 1.608 8.672 1.94933 9.568 2.632C10.464 3.304 11.0827 4.22667 11.424 5.4H9.888C9.6 4.65333 9.136 4.06133 8.496 3.624C7.856 3.176 7.072 2.952 6.144 2.952C5.408 2.952 4.74667 3.13333 4.16 3.496C3.584 3.848 3.12533 4.36 2.784 5.032C2.45333 5.69333 2.288 6.472 2.288 7.368C2.288 8.25333 2.45333 9.02667 2.784 9.688C3.12533 10.3493 3.584 10.8613 4.16 11.224C4.74667 11.576 5.408 11.752 6.144 11.752C7.072 11.752 7.856 11.5333 8.496 11.096C9.136 10.648 9.6 10.0507 9.888 9.304H11.424C11.0827 10.4773 10.464 11.4053 9.568 12.088C8.672 12.76 7.536 13.096 6.16 13.096C5.104 13.096 4.17067 12.856 3.36 12.376C2.54933 11.8853 1.91467 11.208 1.456 10.344C1.008 9.46933 0.784 8.47733 0.784 7.368C0.784 6.248 1.008 5.25067 1.456 4.376C1.91467 3.50133 2.54933 2.824 3.36 2.344C4.17067 1.85333 5.104 1.608 6.16 1.608ZM17.3551 4.104C18.1978 4.104 18.9498 4.28533 19.6111 4.648C20.2831 5.01067 20.8058 5.53333 21.1791 6.216C21.5631 6.89867 21.7551 7.69867 21.7551 8.616C21.7551 9.53333 21.5631 10.3333 21.1791 11.016C20.8058 11.688 20.2831 12.2053 19.6111 12.568C18.9498 12.9307 18.1978 13.112 17.3551 13.112C16.5125 13.112 15.7551 12.9307 15.0831 12.568C14.4218 12.2053 13.8991 11.688 13.5151 11.016C13.1311 10.3333 12.9391 9.53333 12.9391 8.616C12.9391 7.69867 13.1311 6.89867 13.5151 6.216C13.8991 5.53333 14.4218 5.01067 15.0831 4.648C15.7551 4.28533 16.5125 4.104 17.3551 4.104ZM17.3551 5.384C16.8325 5.384 16.3471 5.50133 15.8991 5.736C15.4618 5.97067 15.1045 6.33333 14.8271 6.824C14.5605 7.304 14.4271 7.90133 14.4271 8.616C14.4271 9.32 14.5605 9.91733 14.8271 10.408C15.1045 10.888 15.4618 11.2453 15.8991 11.48C16.3471 11.7147 16.8325 11.832 17.3551 11.832C17.8778 11.832 18.3578 11.7147 18.7951 11.48C19.2431 11.2453 19.6005 10.888 19.8671 10.408C20.1445 9.91733 20.2831 9.32 20.2831 8.616C20.2831 7.90133 20.1445 7.304 19.8671 6.824C19.6005 6.33333 19.2431 5.97067 18.7951 5.736C18.3578 5.50133 17.8778 5.384 17.3551 5.384ZM28.5004 4.104C29.279 4.104 29.9724 4.28533 30.5804 4.648C31.1884 5.01067 31.663 5.53333 32.0044 6.216C32.3564 6.89867 32.5324 7.69867 32.5324 8.616C32.5324 9.53333 32.3564 10.3333 32.0044 11.016C31.663 11.688 31.1884 12.2053 30.5804 12.568C29.9724 12.9307 29.279 13.112 28.5004 13.112C27.647 13.112 26.9217 12.8987 26.3244 12.472C25.7377 12.0347 25.3324 11.464 25.1084 10.76V17.16H23.6524V4.216H25.1084V6.456C25.3324 5.752 25.7377 5.18667 26.3244 4.76C26.9217 4.32267 27.647 4.104 28.5004 4.104ZM28.0844 5.4C27.519 5.4 27.007 5.53333 26.5484 5.8C26.0897 6.056 25.7324 6.42933 25.4764 6.92C25.2204 7.41067 25.0924 7.976 25.0924 8.616C25.0924 9.256 25.2204 9.82133 25.4764 10.312C25.7324 10.792 26.0897 11.1653 26.5484 11.432C27.007 11.6987 27.519 11.832 28.0844 11.832C28.991 11.832 29.711 11.5493 30.2444 10.984C30.7884 10.408 31.0604 9.61867 31.0604 8.616C31.0604 7.61333 30.7884 6.82933 30.2444 6.264C29.711 5.688 28.991 5.4 28.0844 5.4ZM35.0416 4.216L37.8896 11.128L40.5296 4.216H42.1456L36.9296 17.16H35.2816L37.1056 12.856L33.4096 4.216H35.0416ZM44.9365 5.992C45.2245 5.384 45.6458 4.91467 46.2005 4.584C46.7552 4.24267 47.4165 4.072 48.1845 4.072V5.656H47.7365C46.9152 5.656 46.2432 5.86933 45.7205 6.296C45.1978 6.712 44.9365 7.40533 44.9365 8.376V13H43.4805V4.216H44.9365V5.992ZM49.3651 1.64C49.3651 1.37333 49.4558 1.16 49.6371 0.999999C49.8185 0.829333 50.0585 0.743999 50.3571 0.743999C50.6558 0.743999 50.8958 0.829333 51.0771 0.999999C51.2585 1.16 51.3491 1.37333 51.3491 1.64C51.3491 1.90667 51.2585 2.12533 51.0771 2.296C50.8958 2.456 50.6558 2.536 50.3571 2.536C50.0585 2.536 49.8185 2.456 49.6371 2.296C49.4558 2.12533 49.3651 1.90667 49.3651 1.64ZM51.0771 4.216V13H49.6211V4.216H51.0771ZM57.018 4.104C57.8713 4.104 58.5913 4.31733 59.178 4.744C59.7753 5.17067 60.1913 5.74133 60.426 6.456V4.216H61.882V13.144C61.882 13.9547 61.7113 14.6747 61.37 15.304C61.0287 15.9333 60.5487 16.424 59.93 16.776C59.3113 17.128 58.5913 17.304 57.77 17.304C56.586 17.304 55.6207 17.016 54.874 16.44C54.1273 15.8747 53.6527 15.1067 53.45 14.136H54.89C55.0607 14.7227 55.3807 15.1813 55.85 15.512C56.33 15.8533 56.9433 16.024 57.69 16.024C58.4793 16.024 59.13 15.768 59.642 15.256C60.1647 14.7547 60.426 14.0507 60.426 13.144V10.76C60.1913 11.4747 59.7753 12.0453 59.178 12.472C58.5913 12.8987 57.8713 13.112 57.018 13.112C56.2393 13.112 55.546 12.9307 54.938 12.568C54.33 12.2053 53.85 11.688 53.498 11.016C53.1567 10.3333 52.986 9.53333 52.986 8.616C52.986 7.69867 53.1567 6.89867 53.498 6.216C53.85 5.53333 54.33 5.01067 54.938 4.648C55.546 4.28533 56.2393 4.104 57.018 4.104ZM57.434 5.4C56.538 5.4 55.818 5.688 55.274 6.264C54.7407 6.82933 54.474 7.61333 54.474 8.616C54.474 9.61867 54.7407 10.408 55.274 10.984C55.818 11.5493 56.538 11.832 57.434 11.832C58.01 11.832 58.522 11.6987 58.97 11.432C59.4287 11.1653 59.786 10.792 60.042 10.312C60.298 9.82133 60.426 9.256 60.426 8.616C60.426 7.976 60.298 7.41067 60.042 6.92C59.786 6.42933 59.4287 6.056 58.97 5.8C58.522 5.53333 58.01 5.4 57.434 5.4ZM68.8233 4.072C69.8473 4.072 70.6739 4.40267 71.3033 5.064C71.9326 5.71467 72.2473 6.65867 72.2473 7.896V13H70.7913V8.024C70.7913 7.14933 70.5673 6.47733 70.1193 6.008C69.6713 5.53867 69.0633 5.304 68.2953 5.304C67.4953 5.304 66.8553 5.56533 66.3753 6.088C65.8953 6.6 65.6553 7.352 65.6553 8.344V13H64.1993V1.16H65.6553V6.296C65.8793 5.58133 66.2739 5.032 66.8393 4.648C67.4153 4.264 68.0766 4.072 68.8233 4.072ZM78.6725 11.72V13H77.5845C76.6885 13 76.0165 12.7867 75.5685 12.36C75.1312 11.9333 74.9125 11.2187 74.9125 10.216V5.48H73.6005V4.216H74.9125V2.024H76.3845V4.216H78.6565V5.48H76.3845V10.248C76.3845 10.8133 76.4858 11.2027 76.6885 11.416C76.9018 11.6187 77.2645 11.72 77.7765 11.72H78.6725ZM89.5704 1.672C88.4824 1.672 87.517 1.912 86.6744 2.392C85.8424 2.872 85.1917 3.544 84.7224 4.408C84.253 5.26133 84.0184 6.23733 84.0184 7.336C84.0184 8.43467 84.253 9.416 84.7224 10.28C85.1917 11.144 85.8424 11.816 86.6744 12.296C87.517 12.776 88.4824 13.016 89.5704 13.016C90.6584 13.016 91.6184 12.776 92.4504 12.296C93.293 11.816 93.9437 11.144 94.4024 10.28C94.8717 9.416 95.1064 8.43467 95.1064 7.336C95.1064 6.23733 94.8717 5.26133 94.4024 4.408C93.9437 3.544 93.293 2.872 92.4504 2.392C91.6184 1.912 90.6584 1.672 89.5704 1.672ZM89.5704 2.216C90.5624 2.216 91.4317 2.43467 92.1784 2.872C92.925 3.29867 93.501 3.90133 93.9064 4.68C94.3117 5.45867 94.5144 6.344 94.5144 7.336C94.5144 8.328 94.3117 9.21333 93.9064 9.992C93.501 10.76 92.925 11.3627 92.1784 11.8C91.4317 12.2373 90.5624 12.456 89.5704 12.456C88.5784 12.456 87.709 12.2373 86.9624 11.8C86.2157 11.3627 85.6397 10.76 85.2344 9.992C84.829 9.21333 84.6264 8.328 84.6264 7.336C84.6264 6.344 84.829 5.45867 85.2344 4.68C85.6397 3.90133 86.2157 3.29867 86.9624 2.872C87.709 2.43467 88.5784 2.216 89.5704 2.216ZM89.6344 3.624C90.4237 3.624 91.1224 3.85867 91.7304 4.328C92.3384 4.78667 92.7384 5.42667 92.9304 6.248H91.6664C91.5064 5.74667 91.2344 5.35733 90.8504 5.08C90.477 4.80267 90.0504 4.664 89.5704 4.664C88.941 4.664 88.4077 4.89867 87.9704 5.368C87.533 5.82667 87.3144 6.488 87.3144 7.352C87.3144 7.91733 87.4157 8.40267 87.6184 8.808C87.8317 9.21333 88.109 9.51733 88.4504 9.72C88.7917 9.92267 89.165 10.024 89.5704 10.024C90.0504 10.024 90.477 9.88533 90.8504 9.608C91.2344 9.32 91.5064 8.92533 91.6664 8.424H92.9304C92.749 9.24533 92.349 9.89067 91.7304 10.36C91.1224 10.8187 90.4237 11.048 89.6344 11.048C88.9837 11.048 88.3917 10.904 87.8584 10.616C87.325 10.328 86.9037 9.90667 86.5944 9.352C86.285 8.78667 86.1304 8.11467 86.1304 7.336C86.1304 6.568 86.285 5.90667 86.5944 5.352C86.9037 4.78667 87.325 4.36 87.8584 4.072C88.3917 3.77333 88.9837 3.624 89.6344 3.624ZM100.531 11.88C102.345 10.664 103.795 9.45867 104.883 8.264C105.971 7.05867 106.515 5.93867 106.515 4.904C106.515 4.264 106.35 3.752 106.019 3.368C105.699 2.97333 105.177 2.776 104.451 2.776C103.705 2.776 103.139 3.016 102.755 3.496C102.371 3.96533 102.158 4.616 102.115 5.448H100.675C100.75 4.18933 101.139 3.224 101.843 2.552C102.547 1.86933 103.454 1.528 104.563 1.528C105.619 1.528 106.457 1.81067 107.075 2.376C107.694 2.94133 108.003 3.74133 108.003 4.776C108.003 5.62933 107.726 6.49867 107.171 7.384C106.627 8.25867 105.939 9.07467 105.107 9.832C104.286 10.5787 103.438 11.2133 102.563 11.736H108.291V12.936H100.531V11.88ZM109.85 7.288C109.85 9.10133 110.148 10.5147 110.746 11.528C111.343 12.5413 112.378 13.048 113.85 13.048C115.322 13.048 116.356 12.5413 116.954 11.528C117.562 10.5147 117.866 9.10133 117.866 7.288C117.866 5.496 117.562 4.09333 116.954 3.08C116.356 2.06667 115.322 1.56 113.85 1.56C112.378 1.56 111.343 2.06667 110.746 3.08C110.148 4.08267 109.85 5.48533 109.85 7.288ZM116.426 7.288C116.426 8.216 116.356 8.99467 116.218 9.624C116.09 10.2427 115.839 10.7387 115.466 11.112C115.092 11.4853 114.554 11.672 113.85 11.672C113.156 11.672 112.623 11.4853 112.25 11.112C111.876 10.7387 111.62 10.2427 111.482 9.624C111.354 8.99467 111.289 8.216 111.289 7.288C111.289 6.37067 111.354 5.60267 111.482 4.984C111.62 4.36533 111.876 3.87467 112.25 3.512C112.623 3.13867 113.156 2.952 113.85 2.952C114.554 2.952 115.092 3.13867 115.466 3.512C115.839 3.87467 116.09 4.36533 116.218 4.984C116.356 5.60267 116.426 6.37067 116.426 7.288ZM119.438 11.88C121.251 10.664 122.702 9.45867 123.79 8.264C124.878 7.05867 125.422 5.93867 125.422 4.904C125.422 4.264 125.256 3.752 124.926 3.368C124.606 2.97333 124.083 2.776 123.358 2.776C122.611 2.776 122.046 3.016 121.662 3.496C121.278 3.96533 121.064 4.616 121.022 5.448H119.582C119.656 4.18933 120.046 3.224 120.75 2.552C121.454 1.86933 122.36 1.528 123.47 1.528C124.526 1.528 125.363 1.81067 125.982 2.376C126.6 2.94133 126.91 3.74133 126.91 4.776C126.91 5.62933 126.632 6.49867 126.078 7.384C125.534 8.25867 124.846 9.07467 124.014 9.832C123.192 10.5787 122.344 11.2133 121.47 11.736H127.198V12.936H119.438V11.88ZM128.052 3.08V1.72H131.284V13H129.748V3.08H128.052ZM152.007 1.608C153.319 1.608 154.417 1.93333 155.303 2.584C156.199 3.23467 156.801 4.12 157.111 5.24H155.575C155.308 4.55733 154.86 4.008 154.231 3.592C153.612 3.176 152.876 2.968 152.023 2.968C151.255 2.968 150.567 3.14933 149.959 3.512C149.351 3.864 148.871 4.37067 148.519 5.032C148.177 5.69333 148.007 6.472 148.007 7.368C148.007 8.28533 148.183 9.08 148.535 9.752C148.887 10.4133 149.372 10.9253 149.991 11.288C150.62 11.64 151.34 11.816 152.151 11.816C152.844 11.816 153.479 11.6667 154.055 11.368C154.631 11.0693 155.1 10.6373 155.463 10.072C155.836 9.496 156.06 8.824 156.135 8.056H151.703V6.968H157.367V8.312C157.271 9.208 156.993 10.0187 156.535 10.744C156.076 11.4693 155.457 12.0453 154.679 12.472C153.9 12.8987 153.015 13.112 152.023 13.112C150.935 13.112 149.975 12.872 149.143 12.392C148.311 11.9013 147.66 11.224 147.191 10.36C146.732 9.48533 146.503 8.488 146.503 7.368C146.503 6.248 146.732 5.256 147.191 4.392C147.66 3.51733 148.311 2.83467 149.143 2.344C149.975 1.85333 150.929 1.608 152.007 1.608ZM159.948 4.216L162.796 11.128L165.436 4.216H167.052L161.836 17.16H160.188L162.012 12.856L158.316 4.216H159.948ZM179.187 4.072C180.211 4.072 181.032 4.40267 181.651 5.064C182.28 5.71467 182.595 6.65867 182.595 7.896V13H181.139V8.024C181.139 7.16 180.925 6.49867 180.499 6.04C180.083 5.58133 179.507 5.352 178.771 5.352C178.003 5.352 177.384 5.608 176.915 6.12C176.456 6.62133 176.227 7.36267 176.227 8.344V13H174.771V8.024C174.771 7.16 174.557 6.49867 174.131 6.04C173.704 5.58133 173.128 5.352 172.403 5.352C171.624 5.352 171 5.608 170.531 6.12C170.072 6.62133 169.843 7.36267 169.843 8.344V13H168.387V4.216H169.843V6.216C170.056 5.52267 170.435 4.99467 170.979 4.632C171.533 4.25867 172.168 4.072 172.883 4.072C173.629 4.072 174.275 4.264 174.819 4.648C175.373 5.02133 175.768 5.576 176.003 6.312C176.248 5.59733 176.659 5.048 177.235 4.664C177.811 4.26933 178.461 4.072 179.187 4.072ZM185.928 11.288V13H184.168V11.288H185.928ZM202.104 10.392H197.144L196.2 13H194.632L198.808 1.928H200.456L204.616 13H203.048L202.104 10.392ZM201.688 9.256L199.624 3.56L197.56 9.256H201.688ZM207.546 1.16V13H206.09V1.16H207.546ZM211.343 1.16V13H209.887V1.16H211.343ZM223.621 13L220.677 8.392H219.093V13H217.637V1.72H221.349C222.629 1.72 223.589 2.02933 224.229 2.648C224.869 3.256 225.189 4.06667 225.189 5.08C225.189 5.99733 224.933 6.73867 224.421 7.304C223.909 7.85867 223.167 8.20533 222.197 8.344L225.269 13H223.621ZM219.093 7.336H221.221C222.874 7.336 223.701 6.61067 223.701 5.16C223.701 3.70933 222.874 2.984 221.221 2.984H219.093V7.336ZM226.709 1.64C226.709 1.37333 226.8 1.16 226.981 0.999999C227.162 0.829333 227.402 0.743999 227.701 0.743999C228 0.743999 228.24 0.829333 228.421 0.999999C228.602 1.16 228.693 1.37333 228.693 1.64C228.693 1.90667 228.602 2.12533 228.421 2.296C228.24 2.456 228 2.536 227.701 2.536C227.402 2.536 227.162 2.456 226.981 2.296C226.8 2.12533 226.709 1.90667 226.709 1.64ZM228.421 4.216V13H226.965V4.216H228.421ZM234.362 4.104C235.215 4.104 235.935 4.31733 236.522 4.744C237.119 5.17067 237.535 5.74133 237.77 6.456V4.216H239.226V13.144C239.226 13.9547 239.055 14.6747 238.714 15.304C238.372 15.9333 237.892 16.424 237.274 16.776C236.655 17.128 235.935 17.304 235.114 17.304C233.93 17.304 232.964 17.016 232.218 16.44C231.471 15.8747 230.996 15.1067 230.794 14.136H232.234C232.404 14.7227 232.724 15.1813 233.194 15.512C233.674 15.8533 234.287 16.024 235.034 16.024C235.823 16.024 236.474 15.768 236.986 15.256C237.508 14.7547 237.77 14.0507 237.77 13.144V10.76C237.535 11.4747 237.119 12.0453 236.522 12.472C235.935 12.8987 235.215 13.112 234.362 13.112C233.583 13.112 232.89 12.9307 232.282 12.568C231.674 12.2053 231.194 11.688 230.842 11.016C230.5 10.3333 230.33 9.53333 230.33 8.616C230.33 7.69867 230.5 6.89867 230.842 6.216C231.194 5.53333 231.674 5.01067 232.282 4.648C232.89 4.28533 233.583 4.104 234.362 4.104ZM234.778 5.4C233.882 5.4 233.162 5.688 232.618 6.264C232.084 6.82933 231.818 7.61333 231.818 8.616C231.818 9.61867 232.084 10.408 232.618 10.984C233.162 11.5493 233.882 11.832 234.778 11.832C235.354 11.832 235.866 11.6987 236.314 11.432C236.772 11.1653 237.13 10.792 237.386 10.312C237.642 9.82133 237.77 9.256 237.77 8.616C237.77 7.976 237.642 7.41067 237.386 6.92C237.13 6.42933 236.772 6.056 236.314 5.8C235.866 5.53333 235.354 5.4 234.778 5.4ZM246.167 4.072C247.191 4.072 248.018 4.40267 248.647 5.064C249.276 5.71467 249.591 6.65867 249.591 7.896V13H248.135V8.024C248.135 7.14933 247.911 6.47733 247.463 6.008C247.015 5.53867 246.407 5.304 245.639 5.304C244.839 5.304 244.199 5.56533 243.719 6.088C243.239 6.6 242.999 7.352 242.999 8.344V13H241.543V1.16H242.999V6.296C243.223 5.58133 243.618 5.032 244.183 4.648C244.759 4.264 245.42 4.072 246.167 4.072ZM256.016 11.72V13H254.928C254.032 13 253.36 12.7867 252.912 12.36C252.475 11.9333 252.256 11.2187 252.256 10.216V5.48H250.944V4.216H252.256V2.024H253.728V4.216H256V5.48H253.728V10.248C253.728 10.8133 253.83 11.2027 254.032 11.416C254.246 11.6187 254.608 11.72 255.12 11.72H256.016ZM260.545 4.104C261.537 4.104 262.332 4.36533 262.929 4.888C263.537 5.4 263.905 6.09333 264.033 6.968H262.641C262.577 6.44533 262.358 6.01867 261.985 5.688C261.622 5.34667 261.132 5.176 260.513 5.176C259.99 5.176 259.58 5.304 259.281 5.56C258.993 5.80533 258.849 6.14133 258.849 6.568C258.849 6.888 258.945 7.14933 259.137 7.352C259.34 7.544 259.585 7.69333 259.873 7.8C260.172 7.896 260.577 8.00267 261.089 8.12C261.74 8.26933 262.262 8.424 262.657 8.584C263.062 8.73333 263.404 8.97867 263.681 9.32C263.969 9.66133 264.113 10.12 264.113 10.696C264.113 11.4107 263.841 11.992 263.297 12.44C262.764 12.888 262.049 13.112 261.153 13.112C260.108 13.112 259.254 12.8613 258.593 12.36C257.932 11.8587 257.542 11.16 257.425 10.264H258.833C258.886 10.7973 259.116 11.2293 259.521 11.56C259.937 11.8907 260.481 12.056 261.153 12.056C261.654 12.056 262.044 11.928 262.321 11.672C262.609 11.416 262.753 11.08 262.753 10.664C262.753 10.3227 262.652 10.0507 262.449 9.848C262.246 9.64533 261.996 9.49067 261.697 9.384C261.398 9.27733 260.988 9.16533 260.465 9.048C259.814 8.89867 259.292 8.74933 258.897 8.6C258.513 8.45067 258.182 8.216 257.905 7.896C257.638 7.56533 257.505 7.12267 257.505 6.568C257.505 5.832 257.777 5.24 258.321 4.792C258.865 4.33333 259.606 4.104 260.545 4.104ZM275.996 13L273.052 8.392H271.468V13H270.012V1.72H273.724C275.004 1.72 275.964 2.02933 276.604 2.648C277.244 3.256 277.564 4.06667 277.564 5.08C277.564 5.99733 277.308 6.73867 276.796 7.304C276.284 7.85867 275.542 8.20533 274.572 8.344L277.644 13H275.996ZM271.468 7.336H273.596C275.249 7.336 276.076 6.61067 276.076 5.16C276.076 3.70933 275.249 2.984 273.596 2.984H271.468V7.336ZM287.42 8.12C287.42 8.42933 287.399 8.696 287.356 8.92H280.332C280.364 9.92267 280.647 10.6747 281.18 11.176C281.724 11.6773 282.385 11.928 283.164 11.928C283.868 11.928 284.455 11.752 284.924 11.4C285.404 11.0373 285.697 10.5573 285.804 9.96H287.356C287.249 10.568 287.009 11.112 286.636 11.592C286.273 12.072 285.799 12.4453 285.212 12.712C284.625 12.9787 283.964 13.112 283.228 13.112C282.385 13.112 281.639 12.9307 280.988 12.568C280.337 12.2053 279.825 11.688 279.452 11.016C279.089 10.3333 278.908 9.53333 278.908 8.616C278.908 7.69867 279.089 6.89867 279.452 6.216C279.825 5.53333 280.337 5.01067 280.988 4.648C281.639 4.28533 282.385 4.104 283.228 4.104C284.081 4.104 284.823 4.28533 285.452 4.648C286.092 5.01067 286.577 5.496 286.908 6.104C287.249 6.712 287.42 7.384 287.42 8.12ZM285.948 8.216C285.98 7.56533 285.873 7.02133 285.628 6.584C285.383 6.14667 285.047 5.82133 284.62 5.608C284.193 5.39467 283.729 5.288 283.228 5.288C282.428 5.288 281.756 5.53867 281.212 6.04C280.668 6.53067 280.375 7.256 280.332 8.216H285.948ZM292.076 4.104C293.068 4.104 293.863 4.36533 294.46 4.888C295.068 5.4 295.436 6.09333 295.564 6.968H294.172C294.108 6.44533 293.89 6.01867 293.516 5.688C293.154 5.34667 292.663 5.176 292.044 5.176C291.522 5.176 291.111 5.304 290.812 5.56C290.524 5.80533 290.38 6.14133 290.38 6.568C290.38 6.888 290.476 7.14933 290.668 7.352C290.871 7.544 291.116 7.69333 291.404 7.8C291.703 7.896 292.108 8.00267 292.62 8.12C293.271 8.26933 293.794 8.424 294.188 8.584C294.594 8.73333 294.935 8.97867 295.212 9.32C295.5 9.66133 295.644 10.12 295.644 10.696C295.644 11.4107 295.372 11.992 294.828 12.44C294.295 12.888 293.58 13.112 292.684 13.112C291.639 13.112 290.786 12.8613 290.124 12.36C289.463 11.8587 289.074 11.16 288.956 10.264H290.364C290.418 10.7973 290.647 11.2293 291.052 11.56C291.468 11.8907 292.012 12.056 292.684 12.056C293.186 12.056 293.575 11.928 293.852 11.672C294.14 11.416 294.284 11.08 294.284 10.664C294.284 10.3227 294.183 10.0507 293.98 9.848C293.778 9.64533 293.527 9.49067 293.228 9.384C292.93 9.27733 292.519 9.16533 291.996 9.048C291.346 8.89867 290.823 8.74933 290.428 8.6C290.044 8.45067 289.714 8.216 289.436 7.896C289.17 7.56533 289.036 7.12267 289.036 6.568C289.036 5.832 289.308 5.24 289.852 4.792C290.396 4.33333 291.138 4.104 292.076 4.104ZM305.67 8.12C305.67 8.42933 305.649 8.696 305.606 8.92H298.582C298.614 9.92267 298.897 10.6747 299.43 11.176C299.974 11.6773 300.635 11.928 301.414 11.928C302.118 11.928 302.705 11.752 303.174 11.4C303.654 11.0373 303.947 10.5573 304.054 9.96H305.606C305.499 10.568 305.259 11.112 304.886 11.592C304.523 12.072 304.049 12.4453 303.462 12.712C302.875 12.9787 302.214 13.112 301.478 13.112C300.635 13.112 299.889 12.9307 299.238 12.568C298.587 12.2053 298.075 11.688 297.702 11.016C297.339 10.3333 297.158 9.53333 297.158 8.616C297.158 7.69867 297.339 6.89867 297.702 6.216C298.075 5.53333 298.587 5.01067 299.238 4.648C299.889 4.28533 300.635 4.104 301.478 4.104C302.331 4.104 303.073 4.28533 303.702 4.648C304.342 5.01067 304.827 5.496 305.158 6.104C305.499 6.712 305.67 7.384 305.67 8.12ZM304.198 8.216C304.23 7.56533 304.123 7.02133 303.878 6.584C303.633 6.14667 303.297 5.82133 302.87 5.608C302.443 5.39467 301.979 5.288 301.478 5.288C300.678 5.288 300.006 5.53867 299.462 6.04C298.918 6.53067 298.625 7.256 298.582 8.216H304.198ZM309.03 5.992C309.318 5.384 309.74 4.91467 310.294 4.584C310.849 4.24267 311.51 4.072 312.278 4.072V5.656H311.83C311.009 5.656 310.337 5.86933 309.814 6.296C309.292 6.712 309.03 7.40533 309.03 8.376V13H307.574V4.216H309.03V5.992ZM317.123 11.448L319.843 4.216H321.411L317.971 13H316.243L312.803 4.216H314.371L317.123 11.448ZM330.92 8.12C330.92 8.42933 330.899 8.696 330.856 8.92H323.832C323.864 9.92267 324.147 10.6747 324.68 11.176C325.224 11.6773 325.885 11.928 326.664 11.928C327.368 11.928 327.955 11.752 328.424 11.4C328.904 11.0373 329.197 10.5573 329.304 9.96H330.856C330.749 10.568 330.509 11.112 330.136 11.592C329.773 12.072 329.299 12.4453 328.712 12.712C328.125 12.9787 327.464 13.112 326.728 13.112C325.885 13.112 325.139 12.9307 324.488 12.568C323.837 12.2053 323.325 11.688 322.952 11.016C322.589 10.3333 322.408 9.53333 322.408 8.616C322.408 7.69867 322.589 6.89867 322.952 6.216C323.325 5.53333 323.837 5.01067 324.488 4.648C325.139 4.28533 325.885 4.104 326.728 4.104C327.581 4.104 328.323 4.28533 328.952 4.648C329.592 5.01067 330.077 5.496 330.408 6.104C330.749 6.712 330.92 7.384 330.92 8.12ZM329.448 8.216C329.48 7.56533 329.373 7.02133 329.128 6.584C328.883 6.14667 328.547 5.82133 328.12 5.608C327.693 5.39467 327.229 5.288 326.728 5.288C325.928 5.288 325.256 5.53867 324.712 6.04C324.168 6.53067 323.875 7.256 323.832 8.216H329.448ZM336.424 4.104C337.278 4.104 337.998 4.31733 338.584 4.744C339.182 5.17067 339.598 5.74133 339.832 6.456V1.16H341.288V13H339.832V10.76C339.598 11.4747 339.182 12.0453 338.584 12.472C337.998 12.8987 337.278 13.112 336.424 13.112C335.646 13.112 334.952 12.9307 334.344 12.568C333.736 12.2053 333.256 11.688 332.904 11.016C332.563 10.3333 332.392 9.53333 332.392 8.616C332.392 7.69867 332.563 6.89867 332.904 6.216C333.256 5.53333 333.736 5.01067 334.344 4.648C334.952 4.28533 335.646 4.104 336.424 4.104ZM336.84 5.4C335.944 5.4 335.224 5.688 334.68 6.264C334.147 6.82933 333.88 7.61333 333.88 8.616C333.88 9.61867 334.147 10.408 334.68 10.984C335.224 11.5493 335.944 11.832 336.84 11.832C337.416 11.832 337.928 11.6987 338.376 11.432C338.835 11.1653 339.192 10.792 339.448 10.312C339.704 9.82133 339.832 9.256 339.832 8.616C339.832 7.976 339.704 7.41067 339.448 6.92C339.192 6.42933 338.835 6.056 338.376 5.8C337.928 5.53333 337.416 5.4 336.84 5.4ZM344.678 11.288V13H342.918V11.288H344.678Z" fill="white"/>
<path d="M143.543 13L140.599 8.392H139.015V13H137.559V1.72H141.271C142.551 1.72 143.511 2.02933 144.151 2.648C144.791 3.256 145.111 4.06667 145.111 5.08C145.111 5.99733 144.855 6.73867 144.343 7.304C143.831 7.85867 143.089 8.20533 142.119 8.344L145.191 13H143.543ZM139.015 7.336H141.143C142.796 7.336 143.623 6.61067 143.623 5.16C143.623 3.70933 142.796 2.984 141.143 2.984H139.015V7.336Z" fill="#E74C3C"/>
</svg>
