<svg width="262" height="32" viewBox="0 0 262 32" fill="none" xmlns="http://www.w3.org/2000/svg">
<path d="M10 26C4.477 26 0 21.523 0 16C0 10.477 4.477 6 10 6C15.523 6 20 10.477 20 16C20 21.523 15.523 26 10 26ZM10 24C12.1217 24 14.1566 23.1571 15.6569 21.6569C17.1571 20.1566 18 18.1217 18 16C18 13.8783 17.1571 11.8434 15.6569 10.3431C14.1566 8.84285 12.1217 8 10 8C7.87827 8 5.84344 8.84285 4.34315 10.3431C2.84285 11.8434 2 13.8783 2 16C2 18.1217 2.84285 20.1566 4.34315 21.6569C5.84344 23.1571 7.87827 24 10 24ZM11 16H15V18H9V11H11V16Z" fill="#E74C3C"/>
<path opacity="0.75" d="M46.456 10.8V22H45.32V13.04L40.92 20.576H40.36L35.96 13.088V22H34.824V10.8H35.8L40.664 19.104L45.48 10.8H46.456ZM53.3053 22.08C52.4946 22.08 51.7639 21.8987 51.1133 21.536C50.4626 21.1627 49.9506 20.6507 49.5773 20C49.2039 19.3493 49.0173 18.6133 49.0173 17.792C49.0173 16.9707 49.2039 16.2347 49.5773 15.584C49.9506 14.9333 50.4626 14.4267 51.1133 14.064C51.7639 13.7013 52.4946 13.52 53.3053 13.52C54.1159 13.52 54.8466 13.7013 55.4973 14.064C56.1479 14.4267 56.6546 14.9333 57.0173 15.584C57.3906 16.2347 57.5773 16.9707 57.5773 17.792C57.5773 18.6133 57.3906 19.3493 57.0173 20C56.6546 20.6507 56.1479 21.1627 55.4973 21.536C54.8466 21.8987 54.1159 22.08 53.3053 22.08ZM53.3053 21.072C53.9026 21.072 54.4359 20.9387 54.9053 20.672C55.3853 20.3947 55.7586 20.0053 56.0253 19.504C56.2919 19.0027 56.4253 18.432 56.4253 17.792C56.4253 17.152 56.2919 16.5813 56.0253 16.08C55.7586 15.5787 55.3853 15.1947 54.9053 14.928C54.4359 14.6507 53.9026 14.512 53.3053 14.512C52.7079 14.512 52.1693 14.6507 51.6893 14.928C51.2199 15.1947 50.8466 15.5787 50.5693 16.08C50.3026 16.5813 50.1693 17.152 50.1693 17.792C50.1693 18.432 50.3026 19.0027 50.5693 19.504C50.8466 20.0053 51.2199 20.3947 51.6893 20.672C52.1693 20.9387 52.7079 21.072 53.3053 21.072ZM64.1845 13.52C65.2405 13.52 66.0778 13.8293 66.6965 14.448C67.3258 15.056 67.6405 15.9467 67.6405 17.12V22H66.5045V17.232C66.5045 16.3573 66.2858 15.6907 65.8485 15.232C65.4112 14.7733 64.7872 14.544 63.9765 14.544C63.0698 14.544 62.3498 14.816 61.8165 15.36C61.2938 15.8933 61.0325 16.6347 61.0325 17.584V22H59.8965V13.584H60.9845V15.136C61.2938 14.624 61.7205 14.2293 62.2645 13.952C62.8192 13.664 63.4592 13.52 64.1845 13.52ZM74.2881 17.168H78.4801V18.16H74.2881V17.168ZM86.633 11.824V16.224H92.425V17.248H86.633V22H85.449V10.8H93.129V11.824H86.633ZM96.2658 15.232C96.5324 14.6667 96.9271 14.24 97.4498 13.952C97.9831 13.664 98.6391 13.52 99.4178 13.52V14.624L99.1458 14.608C98.2604 14.608 97.5671 14.88 97.0658 15.424C96.5644 15.968 96.3138 16.7307 96.3138 17.712V22H95.1778V13.584H96.2658V15.232ZM101.475 13.584H102.611V22H101.475V13.584ZM102.051 11.744C101.816 11.744 101.619 11.664 101.459 11.504C101.299 11.344 101.219 11.152 101.219 10.928C101.219 10.7147 101.299 10.528 101.459 10.368C101.619 10.208 101.816 10.128 102.051 10.128C102.285 10.128 102.483 10.208 102.643 10.368C102.803 10.5173 102.883 10.6987 102.883 10.912C102.883 11.1467 102.803 11.344 102.643 11.504C102.483 11.664 102.285 11.744 102.051 11.744ZM110.071 15.264C109.836 15.264 109.634 15.1787 109.463 15.008C109.303 14.8373 109.223 14.6293 109.223 14.384C109.223 14.1387 109.303 13.936 109.463 13.776C109.634 13.6053 109.836 13.52 110.071 13.52C110.306 13.52 110.508 13.6053 110.679 13.776C110.85 13.936 110.935 14.1387 110.935 14.384C110.935 14.6293 110.85 14.8373 110.679 15.008C110.508 15.1787 110.306 15.264 110.071 15.264ZM110.071 22.08C109.836 22.08 109.634 21.9947 109.463 21.824C109.303 21.6533 109.223 21.4453 109.223 21.2C109.223 20.9547 109.303 20.752 109.463 20.592C109.634 20.4213 109.836 20.336 110.071 20.336C110.306 20.336 110.508 20.4213 110.679 20.592C110.85 20.752 110.935 20.9547 110.935 21.2C110.935 21.4453 110.85 21.6533 110.679 21.824C110.508 21.9947 110.306 22.08 110.071 22.08ZM123.201 16.128C123.905 16.3627 124.444 16.7147 124.817 17.184C125.201 17.6533 125.393 18.2187 125.393 18.88C125.393 19.5307 125.217 20.1013 124.865 20.592C124.513 21.072 124.006 21.4453 123.345 21.712C122.694 21.968 121.926 22.096 121.041 22.096C119.697 22.096 118.641 21.808 117.873 21.232C117.105 20.656 116.721 19.872 116.721 18.88C116.721 18.208 116.902 17.6427 117.265 17.184C117.638 16.7147 118.177 16.3627 118.881 16.128C118.305 15.904 117.868 15.584 117.569 15.168C117.27 14.7413 117.121 14.24 117.121 13.664C117.121 12.7573 117.473 12.0373 118.177 11.504C118.892 10.9707 119.846 10.704 121.041 10.704C121.83 10.704 122.518 10.8267 123.105 11.072C123.702 11.3067 124.166 11.648 124.497 12.096C124.828 12.544 124.993 13.0667 124.993 13.664C124.993 14.24 124.838 14.7413 124.529 15.168C124.22 15.584 123.777 15.904 123.201 16.128ZM118.273 13.696C118.273 14.3147 118.518 14.8053 119.009 15.168C119.5 15.5307 120.177 15.712 121.041 15.712C121.905 15.712 122.582 15.5307 123.073 15.168C123.574 14.8053 123.825 14.32 123.825 13.712C123.825 13.0827 123.569 12.5867 123.057 12.224C122.556 11.8613 121.884 11.68 121.041 11.68C120.188 11.68 119.51 11.8613 119.009 12.224C118.518 12.5867 118.273 13.0773 118.273 13.696ZM121.041 21.12C122.033 21.12 122.806 20.9173 123.361 20.512C123.926 20.1067 124.209 19.5573 124.209 18.864C124.209 18.1707 123.926 17.6267 123.361 17.232C122.806 16.8267 122.033 16.624 121.041 16.624C120.06 16.624 119.286 16.8267 118.721 17.232C118.166 17.6267 117.889 18.1707 117.889 18.864C117.889 19.568 118.166 20.1227 118.721 20.528C119.276 20.9227 120.049 21.12 121.041 21.12ZM127.852 15.264C127.618 15.264 127.415 15.1787 127.244 15.008C127.084 14.8373 127.004 14.6293 127.004 14.384C127.004 14.1387 127.084 13.936 127.244 13.776C127.415 13.6053 127.618 13.52 127.852 13.52C128.087 13.52 128.29 13.6053 128.46 13.776C128.631 13.936 128.716 14.1387 128.716 14.384C128.716 14.6293 128.631 14.8373 128.46 15.008C128.29 15.1787 128.087 15.264 127.852 15.264ZM127.852 22.08C127.618 22.08 127.415 21.9947 127.244 21.824C127.084 21.6533 127.004 21.4453 127.004 21.2C127.004 20.9547 127.084 20.752 127.244 20.592C127.415 20.4213 127.618 20.336 127.852 20.336C128.087 20.336 128.29 20.4213 128.46 20.592C128.631 20.752 128.716 20.9547 128.716 21.2C128.716 21.4453 128.631 21.6533 128.46 21.824C128.29 21.9947 128.087 22.08 127.852 22.08ZM134.843 22.096C133.979 22.096 133.206 21.8667 132.523 21.408C131.851 20.9493 131.323 20.2933 130.939 19.44C130.566 18.576 130.379 17.5627 130.379 16.4C130.379 15.2373 130.566 14.2293 130.939 13.376C131.323 12.512 131.851 11.8507 132.523 11.392C133.206 10.9333 133.979 10.704 134.843 10.704C135.707 10.704 136.475 10.9333 137.147 11.392C137.83 11.8507 138.363 12.512 138.747 13.376C139.131 14.2293 139.323 15.2373 139.323 16.4C139.323 17.5627 139.131 18.576 138.747 19.44C138.363 20.2933 137.83 20.9493 137.147 21.408C136.475 21.8667 135.707 22.096 134.843 22.096ZM134.843 21.04C135.494 21.04 136.064 20.8587 136.555 20.496C137.056 20.1333 137.446 19.6053 137.723 18.912C138 18.2187 138.139 17.3813 138.139 16.4C138.139 15.4187 138 14.5813 137.723 13.888C137.446 13.1947 137.056 12.6667 136.555 12.304C136.064 11.9413 135.494 11.76 134.843 11.76C134.192 11.76 133.616 11.9413 133.115 12.304C132.624 12.6667 132.24 13.1947 131.963 13.888C131.686 14.5813 131.547 15.4187 131.547 16.4C131.547 17.3813 131.686 18.2187 131.963 18.912C132.24 19.6053 132.624 20.1333 133.115 20.496C133.616 20.8587 134.192 21.04 134.843 21.04ZM145.437 22.096C144.573 22.096 143.799 21.8667 143.117 21.408C142.445 20.9493 141.917 20.2933 141.533 19.44C141.159 18.576 140.973 17.5627 140.973 16.4C140.973 15.2373 141.159 14.2293 141.533 13.376C141.917 12.512 142.445 11.8507 143.117 11.392C143.799 10.9333 144.573 10.704 145.437 10.704C146.301 10.704 147.069 10.9333 147.741 11.392C148.423 11.8507 148.957 12.512 149.341 13.376C149.725 14.2293 149.917 15.2373 149.917 16.4C149.917 17.5627 149.725 18.576 149.341 19.44C148.957 20.2933 148.423 20.9493 147.741 21.408C147.069 21.8667 146.301 22.096 145.437 22.096ZM145.437 21.04C146.087 21.04 146.658 20.8587 147.149 20.496C147.65 20.1333 148.039 19.6053 148.317 18.912C148.594 18.2187 148.733 17.3813 148.733 16.4C148.733 15.4187 148.594 14.5813 148.317 13.888C148.039 13.1947 147.65 12.6667 147.149 12.304C146.658 11.9413 146.087 11.76 145.437 11.76C144.786 11.76 144.21 11.9413 143.709 12.304C143.218 12.6667 142.834 13.1947 142.557 13.888C142.279 14.5813 142.141 15.4187 142.141 16.4C142.141 17.3813 142.279 18.2187 142.557 18.912C142.834 19.6053 143.218 20.1333 143.709 20.496C144.21 20.8587 144.786 21.04 145.437 21.04ZM159.45 13.52C160.549 13.52 161.391 13.7973 161.978 14.352C162.565 14.896 162.858 15.7067 162.858 16.784V22H161.77V20.688C161.514 21.1253 161.135 21.4667 160.634 21.712C160.143 21.9573 159.557 22.08 158.874 22.08C157.935 22.08 157.189 21.856 156.634 21.408C156.079 20.96 155.802 20.368 155.802 19.632C155.802 18.9173 156.058 18.3413 156.57 17.904C157.093 17.4667 157.919 17.248 159.05 17.248H161.722V16.736C161.722 16.0107 161.519 15.4613 161.114 15.088C160.709 14.704 160.117 14.512 159.338 14.512C158.805 14.512 158.293 14.6027 157.802 14.784C157.311 14.9547 156.89 15.1947 156.538 15.504L156.026 14.656C156.453 14.2933 156.965 14.016 157.562 13.824C158.159 13.6213 158.789 13.52 159.45 13.52ZM159.05 21.184C159.69 21.184 160.239 21.04 160.698 20.752C161.157 20.4533 161.498 20.0267 161.722 19.472V18.096H159.082C157.642 18.096 156.922 18.5973 156.922 19.6C156.922 20.0907 157.109 20.48 157.482 20.768C157.855 21.0453 158.378 21.184 159.05 21.184ZM176.439 13.52C177.495 13.52 178.322 13.824 178.919 14.432C179.527 15.04 179.831 15.936 179.831 17.12V22H178.695V17.232C178.695 16.3573 178.482 15.6907 178.055 15.232C177.639 14.7733 177.047 14.544 176.279 14.544C175.405 14.544 174.717 14.816 174.215 15.36C173.714 15.8933 173.463 16.6347 173.463 17.584V22H172.327V17.232C172.327 16.3573 172.114 15.6907 171.687 15.232C171.271 14.7733 170.674 14.544 169.895 14.544C169.031 14.544 168.343 14.816 167.831 15.36C167.33 15.8933 167.079 16.6347 167.079 17.584V22H165.943V13.584H167.031V15.12C167.33 14.608 167.746 14.2133 168.279 13.936C168.813 13.6587 169.426 13.52 170.119 13.52C170.823 13.52 171.431 13.6693 171.943 13.968C172.466 14.2667 172.855 14.7093 173.111 15.296C173.421 14.7413 173.863 14.3093 174.439 14C175.026 13.68 175.693 13.52 176.439 13.52ZM186.476 17.168H190.668V18.16H186.476V17.168ZM204.549 10.8V11.616L199.861 22H198.613L203.221 11.824H197.461V13.92H196.325V10.8H204.549ZM206.618 15.264C206.383 15.264 206.181 15.1787 206.01 15.008C205.85 14.8373 205.77 14.6293 205.77 14.384C205.77 14.1387 205.85 13.936 206.01 13.776C206.181 13.6053 206.383 13.52 206.618 13.52C206.853 13.52 207.055 13.6053 207.226 13.776C207.397 13.936 207.482 14.1387 207.482 14.384C207.482 14.6293 207.397 14.8373 207.226 15.008C207.055 15.1787 206.853 15.264 206.618 15.264ZM206.618 22.08C206.383 22.08 206.181 21.9947 206.01 21.824C205.85 21.6533 205.77 21.4453 205.77 21.2C205.77 20.9547 205.85 20.752 206.01 20.592C206.181 20.4213 206.383 20.336 206.618 20.336C206.853 20.336 207.055 20.4213 207.226 20.592C207.397 20.752 207.482 20.9547 207.482 21.2C207.482 21.4453 207.397 21.6533 207.226 21.824C207.055 21.9947 206.853 22.08 206.618 22.08ZM213.609 22.096C212.745 22.096 211.971 21.8667 211.289 21.408C210.617 20.9493 210.089 20.2933 209.705 19.44C209.331 18.576 209.145 17.5627 209.145 16.4C209.145 15.2373 209.331 14.2293 209.705 13.376C210.089 12.512 210.617 11.8507 211.289 11.392C211.971 10.9333 212.745 10.704 213.609 10.704C214.473 10.704 215.241 10.9333 215.913 11.392C216.595 11.8507 217.129 12.512 217.513 13.376C217.897 14.2293 218.089 15.2373 218.089 16.4C218.089 17.5627 217.897 18.576 217.513 19.44C217.129 20.2933 216.595 20.9493 215.913 21.408C215.241 21.8667 214.473 22.096 213.609 22.096ZM213.609 21.04C214.259 21.04 214.83 20.8587 215.321 20.496C215.822 20.1333 216.211 19.6053 216.489 18.912C216.766 18.2187 216.905 17.3813 216.905 16.4C216.905 15.4187 216.766 14.5813 216.489 13.888C216.211 13.1947 215.822 12.6667 215.321 12.304C214.83 11.9413 214.259 11.76 213.609 11.76C212.958 11.76 212.382 11.9413 211.881 12.304C211.39 12.6667 211.006 13.1947 210.729 13.888C210.451 14.5813 210.312 15.4187 210.312 16.4C210.312 17.3813 210.451 18.2187 210.729 18.912C211.006 19.6053 211.39 20.1333 211.881 20.496C212.382 20.8587 212.958 21.04 213.609 21.04ZM224.202 22.096C223.338 22.096 222.565 21.8667 221.882 21.408C221.21 20.9493 220.682 20.2933 220.298 19.44C219.925 18.576 219.738 17.5627 219.738 16.4C219.738 15.2373 219.925 14.2293 220.298 13.376C220.682 12.512 221.21 11.8507 221.882 11.392C222.565 10.9333 223.338 10.704 224.202 10.704C225.066 10.704 225.834 10.9333 226.506 11.392C227.189 11.8507 227.722 12.512 228.106 13.376C228.49 14.2293 228.682 15.2373 228.682 16.4C228.682 17.5627 228.49 18.576 228.106 19.44C227.722 20.2933 227.189 20.9493 226.506 21.408C225.834 21.8667 225.066 22.096 224.202 22.096ZM224.202 21.04C224.853 21.04 225.424 20.8587 225.914 20.496C226.416 20.1333 226.805 19.6053 227.082 18.912C227.36 18.2187 227.498 17.3813 227.498 16.4C227.498 15.4187 227.36 14.5813 227.082 13.888C226.805 13.1947 226.416 12.6667 225.914 12.304C225.424 11.9413 224.853 11.76 224.202 11.76C223.552 11.76 222.976 11.9413 222.474 12.304C221.984 12.6667 221.6 13.1947 221.322 13.888C221.045 14.5813 220.906 15.4187 220.906 16.4C220.906 17.3813 221.045 18.2187 221.322 18.912C221.6 19.6053 221.984 20.1333 222.474 20.496C222.976 20.8587 223.552 21.04 224.202 21.04ZM239.608 13.52C240.397 13.52 241.112 13.7013 241.752 14.064C242.392 14.416 242.893 14.9173 243.256 15.568C243.618 16.2187 243.8 16.96 243.8 17.792C243.8 18.6347 243.618 19.3813 243.256 20.032C242.893 20.6827 242.392 21.1893 241.752 21.552C241.122 21.904 240.408 22.08 239.608 22.08C238.925 22.08 238.306 21.9413 237.752 21.664C237.208 21.376 236.76 20.96 236.408 20.416V25.104H235.272V13.584H236.36V15.248C236.701 14.6933 237.149 14.2667 237.704 13.968C238.269 13.6693 238.904 13.52 239.608 13.52ZM239.528 21.072C240.114 21.072 240.648 20.9387 241.128 20.672C241.608 20.3947 241.981 20.0053 242.248 19.504C242.525 19.0027 242.664 18.432 242.664 17.792C242.664 17.152 242.525 16.5867 242.248 16.096C241.981 15.5947 241.608 15.2053 241.128 14.928C240.648 14.6507 240.114 14.512 239.528 14.512C238.93 14.512 238.392 14.6507 237.911 14.928C237.442 15.2053 237.069 15.5947 236.792 16.096C236.525 16.5867 236.392 17.152 236.392 17.792C236.392 18.432 236.525 19.0027 236.792 19.504C237.069 20.0053 237.442 20.3947 237.911 20.672C238.392 20.9387 238.93 21.072 239.528 21.072ZM256.611 13.52C257.667 13.52 258.494 13.824 259.091 14.432C259.699 15.04 260.003 15.936 260.003 17.12V22H258.867V17.232C258.867 16.3573 258.654 15.6907 258.227 15.232C257.811 14.7733 257.219 14.544 256.451 14.544C255.577 14.544 254.889 14.816 254.387 15.36C253.886 15.8933 253.635 16.6347 253.635 17.584V22H252.499V17.232C252.499 16.3573 252.286 15.6907 251.859 15.232C251.443 14.7733 250.846 14.544 250.067 14.544C249.203 14.544 248.515 14.816 248.003 15.36C247.502 15.8933 247.251 16.6347 247.251 17.584V22H246.115V13.584H247.203V15.12C247.502 14.608 247.918 14.2133 248.451 13.936C248.985 13.6587 249.598 13.52 250.291 13.52C250.995 13.52 251.603 13.6693 252.115 13.968C252.638 14.2667 253.027 14.7093 253.283 15.296C253.593 14.7413 254.035 14.3093 254.611 14C255.198 13.68 255.865 13.52 256.611 13.52Z" fill="white"/>
</svg>
